<?xml version="1.0" standalone="no"?>
<!DOCTYPE svg PUBLIC "-//W3C//DTD SVG 20010904//EN"
 "http://www.w3.org/TR/2001/REC-SVG-20010904/DTD/svg10.dtd">
<svg version="1.0" xmlns="http://www.w3.org/2000/svg"
 width="1080.000000pt" height="1280.000000pt" viewBox="0 0 1080.000000 1280.000000"
 preserveAspectRatio="xMidYMid meet">
<g transform="translate(0.000000,1280.000000) scale(0.100000,-0.100000)"
fill="#000000" stroke="none">
<path d="M9725 12790 c-66 -5 -228 -13 -360 -19 -2038 -96 -2912 -393 -3790
-1292 -341 -350 -532 -636 -725 -1093 -85 -199 -119 -237 -166 -185 -34 38
-25 229 29 604 68 468 77 551 84 755 8 236 1 294 -39 333 l-29 30 -102 -6
c-172 -10 -336 -56 -697 -198 -124 -48 -302 -110 -396 -138 -214 -63 -276 -86
-299 -111 -17 -19 -17 -21 0 -40 39 -43 138 -62 415 -80 191 -13 240 -23 272
-57 21 -23 23 -33 22 -136 -1 -101 -7 -133 -59 -337 -164 -645 -300 -985 -540
-1350 -108 -164 -192 -271 -414 -530 -200 -232 -280 -336 -340 -439 -34 -58
-49 -72 -118 -113 -146 -88 -283 -139 -533 -198 -655 -155 -680 -163 -895
-300 -177 -113 -252 -143 -596 -245 -328 -97 -389 -126 -429 -205 -26 -50 -25
-58 7 -120 62 -120 245 -229 529 -315 158 -48 289 -76 569 -124 577 -97 1001
-141 1367 -141 108 0 199 -4 202 -8 15 -25 79 -412 83 -508 9 -182 -13 -245
-221 -618 -205 -367 -281 -538 -336 -755 -103 -411 -43 -966 133 -1227 59 -87
70 -99 137 -153 100 -81 231 -215 308 -316 218 -285 360 -362 692 -374 l164
-6 18 -48 c46 -123 42 -253 -22 -732 -57 -423 -52 -745 16 -1027 66 -277 260
-755 358 -883 15 -20 15 -19 16 5 0 14 -23 109 -50 210 -145 537 -152 678 -54
1250 38 228 44 471 14 644 -22 131 -74 328 -130 490 -16 50 -30 97 -30 107 0
20 20 29 61 29 37 0 36 2 99 -235 139 -526 154 -729 86 -1185 -47 -314 -59
-491 -47 -668 11 -153 29 -253 41 -231 4 8 13 77 19 154 26 312 55 477 139
775 67 237 77 299 76 475 0 275 -52 484 -173 699 -83 149 -120 221 -121 233 0
14 101 47 111 36 12 -13 160 -372 189 -458 43 -127 78 -290 90 -413 16 -171
-4 -352 -75 -670 -19 -84 -37 -176 -40 -205 l-6 -52 36 39 c36 41 160 282 235
461 178 419 206 633 111 830 -48 101 -102 171 -250 329 -65 70 -124 138 -132
152 -12 23 -11 28 4 39 29 21 182 55 247 55 83 0 153 -35 252 -128 184 -174
391 -485 568 -857 110 -228 202 -446 356 -834 80 -201 197 -494 259 -651 122
-308 195 -469 222 -491 15 -13 16 -8 10 65 -16 182 -79 436 -243 968 -266 866
-333 1167 -321 1448 10 231 73 388 207 520 91 90 161 131 423 249 211 96 313
151 449 243 375 256 1025 988 1199 1352 23 48 40 89 37 91 -2 3 -34 -39 -70
-93 -191 -282 -379 -512 -588 -723 -251 -252 -427 -377 -684 -488 -185 -79
-367 -120 -836 -191 -513 -77 -600 -99 -1170 -290 -588 -197 -812 -250 -1058
-250 -156 0 -227 16 -348 75 -215 107 -569 455 -746 735 -104 165 -148 309
-148 481 0 203 45 324 109 289 60 -32 161 -207 257 -446 30 -77 61 -145 68
-152 19 -20 30 -1 77 134 22 65 56 146 74 180 66 118 81 131 545 476 164 122
310 251 298 263 -12 12 -122 -32 -301 -121 -243 -122 -459 -218 -562 -250
-128 -40 -246 -40 -327 -1 -67 33 -129 99 -146 155 -7 22 -12 70 -12 107 0
123 30 205 205 551 89 176 185 378 213 450 63 159 136 402 196 645 57 232 70
325 63 452 -8 165 -47 248 -191 411 -171 193 -219 263 -270 389 -73 182 -53
404 54 617 49 97 109 167 238 278 64 55 151 136 194 179 235 241 526 683 653
992 81 199 172 553 260 1016 160 844 179 909 280 967 49 28 149 29 270 3 142
-30 191 -75 215 -203 39 -199 -106 -855 -260 -1180 -100 -210 -190 -312 -397
-450 -68 -46 -123 -87 -123 -92 0 -17 70 -11 281 24 286 48 349 52 494 30 66
-11 159 -19 207 -19 78 0 89 2 113 25 39 36 53 68 85 195 52 204 121 347 287
593 353 525 883 1023 1400 1316 525 297 1222 451 2518 555 743 61 1134 66
1183 17 12 -12 9 -17 -24 -39 -56 -37 -179 -77 -524 -173 -597 -166 -741 -216
-1190 -414 -140 -62 -309 -131 -375 -153 -120 -41 -120 -41 -270 -41 -82 0
-224 4 -315 8 -152 8 -172 7 -250 -13 -255 -64 -575 -285 -921 -637 -154 -158
-252 -276 -494 -599 -269 -359 -416 -483 -689 -579 -57 -20 39 -32 459 -56
399 -24 554 -61 1055 -252 319 -122 470 -175 743 -259 337 -104 343 -109 137
-109 -217 0 -405 -45 -526 -125 -56 -37 -88 -89 -100 -162 -20 -127 76 -545
173 -751 45 -95 110 -165 149 -160 18 2 34 13 43 30 14 24 14 41 -2 165 -29
237 -21 375 29 475 31 61 75 94 155 114 53 14 77 15 141 6 287 -41 617 -277
618 -442 0 -117 -166 -288 -425 -435 -108 -61 -135 -85 -135 -120 0 -31 75
-129 153 -200 104 -96 274 -284 366 -405 49 -63 164 -225 256 -360 276 -404
391 -541 574 -688 137 -111 353 -240 536 -322 86 -38 81 -34 -70 68 -221 149
-379 289 -505 447 -34 44 -141 197 -235 340 -178 268 -277 398 -468 615 -220
250 -220 268 -4 421 274 195 376 310 385 438 6 85 -21 142 -186 395 -369 566
-448 637 -887 790 -88 31 -297 103 -465 162 -373 130 -637 233 -710 276 -71
43 -100 86 -100 149 0 244 509 867 1025 1255 192 145 366 250 630 382 331 165
629 284 1420 565 791 281 1006 370 1080 447 l40 41 -25 19 c-32 25 -136 48
-280 61 -148 14 -620 19 -775 9z m-7264 -4622 c-14 -82 -13 -201 2 -305 7 -44
11 -86 9 -92 -2 -6 -22 -1 -51 15 -75 39 -156 49 -293 35 -218 -21 -520 -85
-783 -167 -66 -20 -176 -54 -245 -76 -69 -21 -172 -47 -230 -58 -169 -33 -519
-44 -546 -17 -23 23 48 51 502 196 138 45 303 101 365 126 108 44 136 58 289
152 128 78 285 125 715 213 137 28 252 53 254 56 3 2 9 0 14 -5 6 -6 5 -34 -2
-73z"/>
<path d="M5821 8065 c-97 -21 -176 -64 -286 -152 -118 -96 -295 -273 -295
-297 0 -20 5 -20 114 4 108 24 220 26 301 5 32 -9 111 -38 174 -64 230 -96
358 -119 496 -87 198 46 475 252 475 354 0 31 -46 74 -102 95 -139 52 -412
118 -598 143 -129 17 -196 17 -279 -1z"/>
</g>
</svg>
